<svg width="64" height="64" viewBox="0 0 64 64" fill="none" xmlns="http://www.w3.org/2000/svg">
<path d="M19.2388 19.2075C19.4782 19.2121 19.4782 19.2121 19.7226 19.2168C20.0615 19.2235 20.4003 19.2322 20.7391 19.2425C21.1656 19.2556 21.5921 19.2651 22.0187 19.2732C24.5095 19.3214 26.9581 19.4317 29.3984 19.9609C29.5517 19.9936 29.705 20.0263 29.8629 20.0599C33.3008 20.8098 36.6971 21.8535 39.875 23.375C39.9543 23.4121 40.0335 23.4492 40.1152 23.4874C41.2195 24.005 42.2701 24.5992 43.3203 25.2188C48.7718 28.4247 54.8978 30.6057 61.2532 31.0523C62.3842 31.1343 62.3842 31.1343 62.75 31.5C62.8514 32.3404 62.8514 32.3404 62.6112 32.7183C62.4143 32.9297 62.209 33.1216 61.9922 33.3125C61.8414 33.4537 61.6908 33.5952 61.5405 33.7368C61.4318 33.8373 61.4318 33.8373 61.321 33.9398C61.0099 34.2338 60.7359 34.5548 60.459 34.8804C60.2071 35.1752 59.9476 35.4624 59.6875 35.75C59.3513 36.1226 59.0171 36.4966 58.6875 36.875C58.2634 37.3619 57.831 37.841 57.3984 38.3203C57.1593 38.5868 56.9226 38.855 56.6875 39.125C56.2634 39.6119 55.831 40.091 55.3984 40.5703C55.1593 40.8368 54.9226 41.105 54.6875 41.375C54.2634 41.8619 53.831 42.341 53.3984 42.8203C53.1593 43.0868 52.9226 43.355 52.6875 43.625C52.2634 44.1119 51.831 44.591 51.3984 45.0703C51.1593 45.3368 50.9226 45.605 50.6875 45.875C50.2634 46.3619 49.831 46.841 49.3984 47.3203C49.0881 47.6661 48.7826 48.0158 48.4775 48.3662C48.2117 48.6685 47.9419 48.9671 47.6719 49.2656C47.3591 49.6114 47.0519 49.9586 46.7578 50.3203C46.5 50.625 46.5 50.625 46.25 50.75C39.5377 51.1235 32.1217 47.9316 26.4765 44.6094C25.3381 43.9398 24.2002 43.3017 23 42.75C22.9047 42.7058 22.8094 42.6616 22.7112 42.616C21.0409 41.849 19.3361 41.2602 17.5787 40.726C17.3154 40.6451 17.0535 40.5601 16.792 40.4736C15.0933 39.9134 13.3076 39.5833 11.5469 39.2813C11.4643 39.2668 11.3818 39.2524 11.2968 39.2375C9.31554 38.9146 7.29178 38.9615 5.29087 38.931C4.87554 38.9245 4.46022 38.9173 4.0449 38.9102C3.91909 38.9085 3.79329 38.9068 3.66367 38.905C1.61933 38.8694 1.61933 38.8694 1.24998 38.5C1.13845 37.6838 1.13845 37.6838 1.3892 37.2705C1.58527 37.0424 1.79089 36.8334 2.00779 36.625C2.15843 36.4721 2.30899 36.3191 2.45945 36.166C2.5319 36.0939 2.60435 36.0218 2.679 35.9475C2.91137 35.7133 3.12927 35.4694 3.34373 35.2188C3.66212 34.8499 3.98592 34.4866 4.31248 34.125C4.64871 33.7524 4.98287 33.3784 5.31248 33C5.73655 32.5131 6.16897 32.034 6.60154 31.5547C6.84067 31.2882 7.07734 31.02 7.31248 30.75C7.73586 30.2639 8.16751 29.7855 8.59959 29.3071C8.91646 28.9537 9.22781 28.5959 9.53709 28.2358C9.80591 27.938 10.0913 27.6587 10.375 27.375C10.6223 27.1143 10.8661 26.8504 11.1094 26.5859C11.1756 26.5141 11.2417 26.4423 11.3099 26.3683C11.7255 25.916 12.1347 25.4591 12.5366 24.9946C12.792 24.7018 13.0521 24.4134 13.3125 24.125C13.7209 23.6725 14.1244 23.2163 14.5244 22.7563C14.7787 22.4674 15.0378 22.1831 15.2969 21.8984C15.7964 21.346 16.268 20.7751 16.7324 20.1929C16.8207 20.088 16.909 19.9831 17 19.875C17.113 19.7118 17.113 19.7118 17.2283 19.5453C17.8558 19.0782 18.4786 19.1818 19.2388 19.2075ZM17.2013 21.7757C17.1348 21.891 17.0684 22.0062 17 22.125C16.8554 22.2976 16.7077 22.4677 16.5547 22.6328C16.4519 22.751 16.4519 22.751 16.3471 22.8716C16.0883 23.1669 15.8256 23.4585 15.5625 23.75C15.2263 24.1226 14.8921 24.4966 14.5625 24.875C14.1384 25.3619 13.706 25.841 13.2734 26.3203C13.0343 26.5868 12.7976 26.855 12.5625 27.125C12.1384 27.6119 11.706 28.091 11.2734 28.5703C11.0343 28.8368 10.7976 29.105 10.5625 29.375C10.1384 29.8619 9.70599 30.341 9.27342 30.8203C9.03429 31.0868 8.79762 31.355 8.56248 31.625C8.13841 32.1119 7.70599 32.591 7.27342 33.0703C7.03429 33.3368 6.79762 33.605 6.56248 33.875C6.13925 34.3609 5.70775 34.8391 5.27586 35.3174C4.95107 35.6795 4.63211 36.0465 4.31346 36.4141C4.15624 36.59 3.98929 36.7572 3.82029 36.9219C3.5961 37.1081 3.5961 37.1081 3.62498 37.375C3.83955 37.3758 3.83955 37.3758 4.05845 37.3766C13.2918 37.4261 21.1289 39.773 29.1128 44.3511C33.3434 46.7651 38.1861 48.2916 43 49C43.0842 49.0127 43.1684 49.0254 43.2552 49.0385C43.7941 49.119 44.3326 49.1965 44.875 49.25C45.0242 49.265 45.1734 49.28 45.3271 49.2954C45.8861 49.2354 46.0216 49.0528 46.375 48.625C46.4283 48.5621 46.4816 48.4992 46.5366 48.4344C46.6929 48.2495 46.8465 48.0623 47 47.875C47.1477 47.7051 47.2961 47.5358 47.4453 47.3672C47.5138 47.2884 47.5823 47.2096 47.6528 47.1284C47.9117 46.8331 48.1744 46.5415 48.4375 46.25C48.7737 45.8774 49.1079 45.5034 49.4375 45.125C49.8615 44.6381 50.294 44.159 50.7265 43.6797C50.9657 43.4132 51.2023 43.145 51.4375 42.875C51.8615 42.3881 52.294 41.909 52.7265 41.4297C52.9657 41.1632 53.2023 40.895 53.4375 40.625C53.8615 40.1381 54.294 39.659 54.7265 39.1797C54.9657 38.9132 55.2023 38.645 55.4375 38.375C55.8615 37.8881 56.294 37.409 56.7265 36.9297C56.9657 36.6632 57.2023 36.395 57.4375 36.125C57.7671 35.7466 58.1013 35.3726 58.4375 35C58.625 34.7917 58.8125 34.5834 59 34.375C59.082 34.2841 59.164 34.1932 59.2485 34.0996C59.3238 34.0152 59.399 33.9307 59.4765 33.8438C59.5418 33.7709 59.6071 33.6981 59.6743 33.623C59.9315 33.3051 60.152 32.9675 60.375 32.625C60.2723 32.6121 60.2723 32.6121 60.1675 32.5989C53.875 31.774 47.9359 29.6972 42.4765 26.4844C41.3382 25.8148 40.2003 25.1765 39 24.625C38.906 24.5815 38.812 24.5379 38.7152 24.493C33.4119 22.061 27.7917 20.9415 21.9906 20.7366C21.6888 20.7247 21.3871 20.7101 21.0855 20.6928C18.8423 20.4761 18.8423 20.4761 17.2013 21.7757Z" fill="#E67429"/>
<path d="M58.5001 1.24934C58.7817 1.40395 58.7817 1.40395 59.0038 1.6236C59.0888 1.70546 59.1738 1.78733 59.2614 1.87167C59.3931 2.00641 59.3931 2.00641 59.5275 2.14387C59.6669 2.28181 59.6669 2.28181 59.8091 2.42254C60.0044 2.6172 60.1985 2.81312 60.3914 3.0102C60.6867 3.3109 60.987 3.60589 61.2882 3.9007C61.4777 4.09081 61.6668 4.28123 61.8556 4.47199C61.9454 4.5598 62.0353 4.6476 62.1278 4.73806C62.2506 4.86558 62.2506 4.86558 62.3759 4.99567C62.4484 5.06895 62.5208 5.14224 62.5955 5.21774C62.8325 5.64928 62.8688 6.02996 62.7501 6.49934C62.5036 6.8864 62.189 7.18829 61.8595 7.50547C61.7175 7.64806 61.7175 7.64806 61.5725 7.79352C61.2591 8.10692 60.9422 8.41662 60.6251 8.72639C60.4059 8.94405 60.1869 9.16193 59.9681 9.38001C59.3912 9.95382 58.8113 10.5245 58.2308 11.0947C57.759 11.5589 57.2894 12.0252 56.8199 12.4917C55.8471 13.4581 54.8729 14.4231 53.8952 15.3844C53.8064 15.472 53.7177 15.5596 53.6262 15.6499C53.1312 16.1355 52.6233 16.5992 52.0988 17.0527C51.8137 17.3033 51.5467 17.568 51.2821 17.8401C51.125 18.0008 51.125 18.0008 50.9648 18.1648C50.8551 18.2774 50.7455 18.3901 50.6325 18.5062C50.395 18.748 50.1571 18.9893 49.9193 19.2308C49.5477 19.6084 49.1768 19.9865 48.8077 20.3665C48.5651 20.6162 48.3215 20.8648 48.0768 21.1124C47.8474 21.3445 47.6194 21.578 47.3931 21.8131C47.2888 21.9179 47.1845 22.0227 47.077 22.1306C46.9412 22.2695 46.9412 22.2695 46.8027 22.4111C46.3789 22.7098 46.1468 22.7778 45.6251 22.7493C45.226 22.4991 44.9145 22.1726 44.5869 21.8365C44.487 21.7379 44.3871 21.6394 44.2841 21.5379C43.9542 21.211 43.628 20.8807 43.3019 20.5501C43.0738 20.3221 42.8455 20.0942 42.6171 19.8664C42.1387 19.3884 41.6621 18.9087 41.1867 18.4276C40.6378 17.872 40.0859 17.3196 39.5322 16.7689C38.999 16.2384 38.4679 15.7057 37.9378 15.1721C37.7123 14.9455 37.4864 14.7195 37.2599 14.4939C36.9435 14.1783 36.6296 13.8603 36.3164 13.5416C36.2223 13.4487 36.1283 13.3558 36.0315 13.2601C35.6325 12.8495 35.4008 12.583 35.2305 12.0281C35.2528 11.5705 35.3064 11.442 35.6237 11.1214C35.7085 11.0335 35.7932 10.9456 35.8806 10.855C35.9742 10.7634 36.0678 10.6718 36.1642 10.5775C36.2594 10.4813 36.3546 10.3851 36.4527 10.286C36.6545 10.0836 36.8576 9.88231 37.0618 9.68226C37.3741 9.37538 37.6806 9.06354 37.987 8.7508C38.1837 8.55468 38.3808 8.35887 38.5783 8.1634C38.6698 8.0698 38.7614 7.9762 38.8558 7.87977C39.254 7.4958 39.4953 7.27042 40.0492 7.18046C40.7623 7.48704 41.2271 8.00976 41.7614 8.56233C41.8805 8.68282 41.9997 8.80315 42.1191 8.92332C42.4317 9.23877 42.742 9.55641 43.0519 9.87457C43.3689 10.1993 43.6882 10.522 44.0072 10.8448C44.632 11.4776 45.2543 12.1127 45.8751 12.7493C46.3124 12.5431 46.5976 12.3075 46.9401 11.9632C47.0473 11.8557 47.1546 11.7483 47.265 11.6375C47.3761 11.5249 47.4872 11.4123 47.6017 11.2962C47.7114 11.1865 47.821 11.0767 47.934 10.9637C48.3842 10.5104 48.827 10.0575 49.242 9.57166C50.4454 8.18821 51.7819 6.91409 53.0724 5.61274C53.4368 5.24497 53.7998 4.87586 54.1616 4.50556C54.6005 4.05643 55.0418 3.60979 55.4849 3.16481C55.6528 2.99542 55.8198 2.82516 55.9859 2.65404C56.218 2.41526 56.4531 2.17981 56.6891 1.94489C56.7566 1.874 56.8241 1.8031 56.8936 1.73005C57.4385 1.1981 57.7752 1.14851 58.5001 1.24934ZM57.6692 3.30164C57.5867 3.38536 57.5041 3.46908 57.4191 3.55533C57.3243 3.65086 57.2295 3.7464 57.1319 3.84482C57.0278 3.95099 56.9237 4.05716 56.8165 4.16654C56.7069 4.27729 56.5973 4.38803 56.4844 4.50214C56.2456 4.74355 56.0071 4.98517 55.7689 5.22712C55.392 5.60977 55.0138 5.99121 54.6355 6.37242C53.5595 7.45673 52.4846 8.54203 51.4123 9.62998C50.8205 10.2305 50.2273 10.8296 49.6326 11.4273C49.3179 11.7437 49.0039 12.0608 48.6916 12.3795C48.343 12.7353 47.9915 13.0882 47.6397 13.441C47.4855 13.5998 47.4855 13.5998 47.3281 13.7619C46.901 14.1861 46.6054 14.4637 46.0292 14.6587C45.5222 14.6156 45.374 14.4949 45.0209 14.1336C44.9109 14.0235 44.8008 13.9134 44.6874 13.7999C44.5704 13.6778 44.4535 13.5556 44.3366 13.4334C44.2147 13.3097 44.0927 13.1862 43.9704 13.0629C43.6498 12.7386 43.3324 12.4113 43.0155 12.0833C42.6913 11.7489 42.3643 11.4173 42.0375 11.0855C41.3972 10.4345 40.7602 9.78045 40.1251 9.12434C39.6725 9.33665 39.3823 9.58822 39.0294 9.94563C38.9183 10.0576 38.8071 10.1696 38.6925 10.285C38.52 10.4607 38.52 10.4607 38.3439 10.64C38.2258 10.7593 38.1076 10.8786 37.9894 10.9979C37.7007 11.2895 37.4127 11.5816 37.1251 11.8743C37.2859 12.2273 37.4535 12.4838 37.7279 12.7572C37.7998 12.8294 37.8716 12.9016 37.9457 12.976C38.0242 13.0537 38.1028 13.1313 38.1838 13.2114C38.2667 13.2944 38.3497 13.3773 38.4351 13.4628C38.7091 13.7367 38.984 14.0096 39.2589 14.2825C39.4492 14.4723 39.6394 14.6622 39.8296 14.8521C40.33 15.3516 40.8312 15.8504 41.3326 16.3489C41.8441 16.8579 42.355 17.3676 42.8659 17.8773C43.8683 18.877 44.8715 19.8759 45.8751 20.8743C46.3385 20.6803 46.6327 20.3976 46.9857 20.0438C47.0454 19.9844 47.105 19.9249 47.1665 19.8637C47.3659 19.6647 47.5644 19.4648 47.763 19.2649C47.9058 19.122 48.0488 18.9791 48.1917 18.8362C48.5797 18.4484 48.9668 18.0598 49.3538 17.671C49.7584 17.2648 50.1637 16.8594 50.569 16.4538C51.3362 15.6858 52.1028 14.9172 52.8692 14.1483C53.7417 13.273 54.615 12.3983 55.4883 11.5238C57.2847 9.72475 59.0802 7.92484 60.8751 6.12434C60.664 5.6752 60.4147 5.38167 60.0626 5.02863C59.9518 4.91745 59.8409 4.80627 59.7267 4.69172C59.5527 4.51915 59.5527 4.51915 59.3751 4.34309C59.2011 4.16761 59.2011 4.16761 59.0236 3.98859C58.9127 3.87806 58.8019 3.76752 58.6876 3.65363C58.5858 3.55208 58.484 3.45053 58.379 3.34589C58.0693 3.07561 57.9848 3.02991 57.6692 3.30164Z" fill="#E67429"/>
<path d="M62.0703 43.2109C62.5 43.25 62.5 43.25 62.75 43.5C62.8615 44.3162 62.8615 44.3162 62.6108 44.7295C62.4147 44.9576 62.2091 45.1666 61.9922 45.375C61.8415 45.5279 61.691 45.6809 61.5405 45.834C61.4318 45.9421 61.4318 45.9421 61.321 46.0525C61.0886 46.2867 60.8707 46.5306 60.6562 46.7812C60.3378 47.1501 60.014 47.5134 59.6875 47.875C59.3512 48.2476 59.0171 48.6216 58.6875 49C58.2634 49.4869 57.831 49.966 57.3984 50.4453C57.1593 50.7118 56.9226 50.98 56.6875 51.25C56.2634 51.7369 55.831 52.216 55.3984 52.6953C55.1593 52.9618 54.9226 53.23 54.6875 53.5C54.2634 53.9869 53.831 54.466 53.3984 54.9453C53.1593 55.2118 52.9226 55.48 52.6875 55.75C52.2634 56.2369 51.831 56.716 51.3984 57.1953C51.1593 57.4618 50.9226 57.73 50.6875 58C50.2634 58.4869 49.831 58.966 49.3984 59.4453C49.0881 59.7911 48.7825 60.1408 48.4775 60.4912C48.1232 60.8942 47.7621 61.2912 47.4013 61.6885C47.1375 61.9739 47.1375 61.9739 46.9833 62.2022C46.7072 62.5842 46.5541 62.7381 46.0884 62.8408C42.059 62.7357 38.0373 61.7014 34.25 60.375C34.0803 60.3158 34.0803 60.3158 33.9071 60.2555C31.4474 59.3865 29.1488 58.2563 26.9072 56.9266C19.8186 52.7375 12.2905 50.9897 4.10584 50.9222C3.97179 50.9207 3.83775 50.9192 3.69964 50.9177C3.4456 50.915 3.19155 50.9133 2.9375 50.9128C1.64822 50.8983 1.64822 50.8983 1.24997 50.5C1.21583 49.783 1.21583 49.783 1.24997 49.5C1.49997 49.25 1.49997 49.25 1.78923 49.2205C1.91056 49.2214 2.03189 49.2223 2.15689 49.2232C2.3643 49.224 2.3643 49.224 2.5759 49.2248C2.72713 49.2268 2.87835 49.2289 3.03415 49.231C3.19094 49.2323 3.34773 49.2337 3.50928 49.2352C4.02185 49.2408 4.53433 49.2489 5.04685 49.2578C5.13367 49.2592 5.2205 49.2606 5.30996 49.2621C8.11697 49.3079 10.8655 49.4518 13.625 50C13.7649 50.0272 13.9047 50.0545 14.0489 50.0825C19.118 51.1038 23.8209 53.1574 28.2676 55.7485C32.9613 58.4795 40.1471 61.756 45.75 61.125C46.065 60.8934 46.065 60.8934 46.3125 60.5625C46.4556 60.3904 46.4556 60.3904 46.6015 60.2148C46.7369 60.0466 46.7369 60.0466 46.875 59.875C47.0199 59.7076 47.1657 59.5408 47.3125 59.375C47.3821 59.2951 47.4517 59.2152 47.5234 59.1328C47.8789 58.7283 48.2407 58.3295 48.6015 57.9297C48.8407 57.6632 49.0773 57.395 49.3125 57.125C49.7365 56.6381 50.169 56.159 50.6015 55.6797C50.8407 55.4132 51.0773 55.145 51.3125 54.875C51.7365 54.3881 52.169 53.909 52.6015 53.4297C52.8407 53.1632 53.0773 52.895 53.3125 52.625C53.7365 52.1381 54.169 51.659 54.6015 51.1797C54.8407 50.9132 55.0773 50.645 55.3125 50.375C55.7365 49.8881 56.169 49.409 56.6015 48.9297C56.8407 48.6632 57.0773 48.395 57.3125 48.125C57.6421 47.7466 57.9762 47.3726 58.3125 47C58.9256 46.3199 59.5297 45.6332 60.1245 44.937C60.1914 44.8587 60.2583 44.7805 60.3272 44.6998C60.461 44.5431 60.5947 44.3863 60.7282 44.2294C60.7901 44.1567 60.8521 44.0841 60.916 44.0093C60.9713 43.9443 61.0266 43.8793 61.0836 43.8123C61.1385 43.7505 61.1934 43.6887 61.25 43.625C61.3393 43.5215 61.3393 43.5215 61.4305 43.4159C61.625 43.25 61.625 43.25 62.0703 43.2109Z" fill="#E67429"/>
<path d="M62.0703 37.2109C62.5 37.25 62.5 37.25 62.75 37.5C62.8618 38.3251 62.8618 38.3251 62.6108 38.7178C62.4143 38.9298 62.2091 39.1215 61.9922 39.3125C61.8414 39.4537 61.6909 39.5952 61.5405 39.7368C61.4319 39.8373 61.4319 39.8373 61.321 39.9398C61.0099 40.2338 60.7359 40.5548 60.459 40.8804C60.2071 41.1752 59.9476 41.4624 59.6875 41.75C59.3513 42.1226 59.0171 42.4966 58.6875 42.875C58.2634 43.3619 57.831 43.841 57.3984 44.3203C57.1593 44.5868 56.9226 44.855 56.6875 45.125C56.2634 45.6119 55.831 46.091 55.3984 46.5703C55.1593 46.8368 54.9226 47.105 54.6875 47.375C54.2634 47.8619 53.831 48.341 53.3984 48.8203C53.1593 49.0868 52.9226 49.355 52.6875 49.625C52.2634 50.1119 51.831 50.591 51.3984 51.0703C51.1593 51.3368 50.9226 51.605 50.6875 51.875C50.2634 52.3619 49.831 52.841 49.3984 53.3203C49.0881 53.6661 48.7826 54.0158 48.4775 54.3662C48.2117 54.6685 47.9419 54.9671 47.6719 55.2656C47.3591 55.6114 47.0519 55.9586 46.7578 56.3203C46.5 56.625 46.5 56.625 46.25 56.75C39.5377 57.1235 32.1218 53.9316 26.4766 50.6094C25.3381 49.9398 24.2003 49.3017 23 48.75C22.857 48.6837 22.857 48.6837 22.7112 48.616C21.0409 47.849 19.3361 47.2602 17.5787 46.726C17.3155 46.6451 17.0535 46.5601 16.792 46.4736C15.0934 45.9134 13.3076 45.5833 11.5469 45.2812C11.4643 45.2668 11.3818 45.2524 11.2968 45.2375C9.31556 44.9146 7.2918 44.9615 5.29089 44.931C4.87556 44.9245 4.46024 44.9173 4.04492 44.9102C3.91911 44.9085 3.79331 44.9068 3.66369 44.905C1.61935 44.8694 1.61935 44.8694 1.25 44.5C1.2168 44.2656 1.2168 44.2656 1.21875 44C1.21811 43.9123 1.21746 43.8247 1.2168 43.7344C1.25 43.5 1.25 43.5 1.5 43.25C1.78926 43.2205 1.78926 43.2205 2.15692 43.2232C2.36433 43.224 2.36433 43.224 2.57593 43.2248C2.72715 43.2268 2.87838 43.2289 3.03418 43.231C3.19097 43.2323 3.34776 43.2337 3.5093 43.2352C4.02188 43.2408 4.53435 43.2489 5.04688 43.2578C5.1337 43.2592 5.22053 43.2606 5.30998 43.2621C8.117 43.3079 10.8655 43.4518 13.625 44C13.7649 44.0272 13.9048 44.0545 14.0489 44.0825C19.118 45.1038 23.8209 47.1574 28.2676 49.7485C32.9613 52.4795 40.1471 55.756 45.75 55.125C46.065 54.8934 46.065 54.8934 46.3125 54.5625C46.4556 54.3904 46.4556 54.3904 46.6016 54.2148C46.7369 54.0466 46.7369 54.0466 46.875 53.875C47.0199 53.7076 47.1657 53.5408 47.3125 53.375C47.3821 53.2951 47.4517 53.2152 47.5234 53.1328C47.8789 52.7283 48.2408 52.3295 48.6016 51.9297C48.8407 51.6632 49.0774 51.395 49.3125 51.125C49.7366 50.6381 50.169 50.159 50.6016 49.6797C50.8407 49.4132 51.0774 49.145 51.3125 48.875C51.7366 48.3881 52.169 47.909 52.6016 47.4297C52.8407 47.1632 53.0774 46.895 53.3125 46.625C53.7366 46.1381 54.169 45.659 54.6016 45.1797C54.8407 44.9132 55.0774 44.645 55.3125 44.375C55.7366 43.8881 56.169 43.409 56.6016 42.9297C56.8407 42.6632 57.0774 42.395 57.3125 42.125C57.6421 41.7466 57.9763 41.3726 58.3125 41C58.9256 40.3199 59.5298 39.6332 60.1245 38.937C60.1914 38.8587 60.2583 38.7805 60.3272 38.6998C60.461 38.5431 60.5947 38.3863 60.7282 38.2294C60.7902 38.1567 60.8521 38.0841 60.916 38.0093C60.9713 37.9443 61.0266 37.8793 61.0836 37.8123C61.1385 37.7505 61.1934 37.6887 61.25 37.625C61.3394 37.5215 61.3394 37.5215 61.4305 37.4159C61.625 37.25 61.625 37.25 62.0703 37.2109Z" fill="#E67429"/>
</svg>
